<svg width="1407" height="878" viewBox="0 0 1407 878" fill="none" xmlns="http://www.w3.org/2000/svg">
<g clip-path="url(#clip0_50_2327)">
<rect width="1407" height="878" rx="30" fill="black"/>
<g clip-path="url(#clip1_50_2327)">
<rect width="1464" height="900" transform="translate(-32 -1)" fill="black"/>
<g opacity="0.4" filter="url(#filter0_f_50_2327)">
<path d="M-166.584 1062.85L204.34 1062.85L204.34 525.73L18.878 357.846L-166.584 357.846L-166.584 1062.85Z" fill="url(#paint0_linear_50_2327)"/>
<path d="M202.84 526.396L202.84 1061.35L-165.084 1061.35L-165.084 359.346L18.2999 359.346L202.84 526.396Z" stroke="url(#paint1_linear_50_2327)" stroke-width="3"/>
</g>
<path d="M565.96 474.822C565.96 469.492 569.158 465.41 574.54 465.41C579.22 465.41 582.288 468.218 582.834 472.742H580.702C580.286 469.232 578.128 467.23 574.54 467.23C570.276 467.23 568.092 470.402 568.092 474.822C568.092 479.268 570.276 482.44 574.54 482.44C578.128 482.44 580.286 480.412 580.702 476.902H582.834C582.288 481.452 579.22 484.26 574.54 484.26C569.158 484.26 565.96 480.178 565.96 474.822ZM585.796 484V472.612C585.796 471.39 586.368 470.792 587.59 470.844L594.766 471.078V472.898L587.928 472.664V484H585.796ZM595.839 477.37C595.839 473.21 598.439 470.818 602.105 470.818C605.745 470.818 608.137 473.132 608.137 477.11V477.942H597.919C598.049 480.386 599.219 482.492 602.417 482.492C604.549 482.492 605.979 481.452 606.447 479.476H608.579C608.085 481.478 606.525 484.26 602.417 484.26C597.789 484.26 595.839 481.088 595.839 477.37ZM597.919 476.33H606.057C606.057 474.25 604.679 472.612 602.105 472.612C599.557 472.612 597.919 474.25 597.919 476.33ZM611.2 480.412C611.2 478.358 612.422 476.954 615.438 476.642L620.586 476.148C620.456 473.782 619.182 472.612 616.946 472.612C615.074 472.612 613.332 473.444 613.332 475.888H611.252C611.252 473.21 613.28 470.818 616.946 470.818C620.56 470.818 622.718 473.21 622.718 476.668V482.18H624.616V484H622.328C621.34 484 620.794 483.454 620.794 482.492V481.79L621.132 480.438H620.508C620.014 482.414 618.636 484.26 615.516 484.26C611.772 484.26 611.2 481.764 611.2 480.412ZM613.332 480.152C613.332 481.634 614.268 482.44 615.776 482.44C618.714 482.44 620.586 480.412 620.586 477.734L615.802 478.228C614.164 478.384 613.332 478.878 613.332 480.152ZM629.935 482.466L634.485 482.18V484L629.597 484.26C628.375 484.338 627.829 483.688 627.829 482.492V472.898H624.969V471.078H627.829V467.75L629.935 467.1V471.078H633.965V472.898H629.935V482.466ZM636.21 477.37C636.21 473.21 638.81 470.818 642.476 470.818C646.116 470.818 648.508 473.132 648.508 477.11V477.942H638.29C638.42 480.386 639.59 482.492 642.788 482.492C644.92 482.492 646.35 481.452 646.818 479.476H648.95C648.456 481.478 646.896 484.26 642.788 484.26C638.16 484.26 636.21 481.088 636.21 477.37ZM638.29 476.33H646.428C646.428 474.25 645.05 472.612 642.476 472.612C639.928 472.612 638.29 474.25 638.29 476.33ZM660.331 480.412C660.331 478.358 661.553 476.954 664.569 476.642L669.717 476.148C669.587 473.782 668.313 472.612 666.077 472.612C664.205 472.612 662.463 473.444 662.463 475.888H660.383C660.383 473.21 662.411 470.818 666.077 470.818C669.691 470.818 671.849 473.21 671.849 476.668V482.18H673.747V484H671.459C670.471 484 669.925 483.454 669.925 482.492V481.79L670.263 480.438H669.639C669.145 482.414 667.767 484.26 664.647 484.26C660.903 484.26 660.331 481.764 660.331 480.412ZM662.463 480.152C662.463 481.634 663.399 482.44 664.907 482.44C667.845 482.44 669.717 480.412 669.717 477.734L664.933 478.228C663.295 478.384 662.463 478.878 662.463 480.152ZM683.831 465.67H685.859L689.603 483.402H690.227L693.945 465.67H698.339L702.057 483.402H702.681L706.425 465.67H708.453L704.553 484H700.211L696.441 466.268H695.843L692.099 484H687.757L683.831 465.67ZM709.564 480.412C709.564 478.358 710.786 476.954 713.802 476.642L718.95 476.148C718.82 473.782 717.546 472.612 715.31 472.612C713.438 472.612 711.696 473.444 711.696 475.888H709.616C709.616 473.21 711.644 470.818 715.31 470.818C718.924 470.818 721.082 473.21 721.082 476.668V482.18H722.98V484H720.692C719.704 484 719.158 483.454 719.158 482.492V481.79L719.496 480.438H718.872C718.378 482.414 717 484.26 713.88 484.26C710.136 484.26 709.564 481.764 709.564 480.412ZM711.696 480.152C711.696 481.634 712.632 482.44 714.14 482.44C717.078 482.44 718.95 480.412 718.95 477.734L714.166 478.228C712.528 478.384 711.696 478.878 711.696 480.152ZM724.69 484V482.18H728.33V466.476L725.652 466.71V464.89L728.668 464.63C729.864 464.526 730.436 465.202 730.436 466.424V482.18H734.05V484H724.69ZM736.04 484V482.18H739.68V466.476L737.002 466.71V464.89L740.018 464.63C741.214 464.526 741.786 465.202 741.786 466.424V482.18H745.4V484H736.04ZM746.862 477.37C746.862 473.21 749.462 470.818 753.128 470.818C756.768 470.818 759.16 473.132 759.16 477.11V477.942H748.942C749.072 480.386 750.242 482.492 753.44 482.492C755.572 482.492 757.002 481.452 757.47 479.476H759.602C759.108 481.478 757.548 484.26 753.44 484.26C748.812 484.26 746.862 481.088 746.862 477.37ZM748.942 476.33H757.08C757.08 474.25 755.702 472.612 753.128 472.612C750.58 472.612 748.942 474.25 748.942 476.33ZM765.75 482.466L770.3 482.18V484L765.412 484.26C764.19 484.338 763.644 483.688 763.644 482.492V472.898H760.784V471.078H763.644V467.75L765.75 467.1V471.078H769.78V472.898H765.75V482.466ZM792.026 467.49H787.944V482.18H792.026V484H781.704V482.18H785.812V467.49H781.704V465.67H792.026V467.49ZM801.093 465.67C805.539 465.67 810.271 466.944 810.271 474.822C810.271 482.726 805.539 484 801.093 484H795.269V465.67H801.093ZM801.093 482.18C804.343 482.18 808.139 481.608 808.139 474.822C808.139 468.062 804.343 467.49 801.093 467.49H797.401V482.18H801.093Z" fill="white"/>
<mask id="path-6-outside-1_50_2327" maskUnits="userSpaceOnUse" x="385" y="355" width="633" height="68" fill="black">
<rect fill="white" x="385" y="355" width="633" height="68"/>
<path d="M387.964 407H417.68V402.24H393.54V385.376H414.28V380.616H393.54V363.82H417.68V359.06H387.964V407ZM443.896 377.284C449.676 377.284 452.464 380.004 452.464 387.076V407H457.972V386.328C457.972 376.944 453.008 372.524 445.392 372.524C438.048 372.524 433.764 376.808 432.404 382.928H430.84L431.724 379.052V373.204H426.148V407H431.724V392.04C431.724 382.928 436.756 377.284 443.896 377.284ZM501.667 407V357.02H496.091V378.168L497.043 382.044H495.411C493.983 376.74 489.427 372.524 481.743 372.524C471.951 372.524 465.627 380.072 465.627 390.068C465.627 400.132 471.951 407.68 481.743 407.68C489.427 407.68 493.983 403.464 495.411 398.228H497.043L496.091 402.036V407H501.667ZM496.091 390.068C496.091 399.112 490.379 402.92 483.375 402.92C476.371 402.92 471.203 399.112 471.203 390.068C471.203 381.092 476.371 377.284 483.375 377.284C490.379 377.284 496.091 381.092 496.091 390.068ZM543.845 402.988V377.964H554.385V373.204H543.845V362.8L538.337 364.5V373.204H530.857V377.964H538.337V403.056C538.337 406.184 539.765 407.884 542.961 407.68L555.745 407V402.24L543.845 402.988ZM560.256 390.068C560.256 399.928 567.328 407.68 578.14 407.68C588.884 407.68 595.888 399.928 595.888 390.068C595.888 380.276 588.884 372.524 578.14 372.524C567.328 372.524 560.256 380.276 560.256 390.068ZM565.832 390.068C565.832 383.064 570.116 377.284 578.14 377.284C586.096 377.284 590.38 383.064 590.38 390.068C590.38 397.14 586.096 402.92 578.14 402.92C570.116 402.92 565.832 397.14 565.832 390.068ZM627.093 407H656.809V402.24H632.669V385.376H653.409V380.616H632.669V363.82H656.809V359.06H627.093V407ZM683.025 377.284C688.805 377.284 691.593 380.004 691.593 387.076V407H697.101V386.328C697.101 376.944 692.137 372.524 684.521 372.524C677.177 372.524 672.893 376.808 671.533 382.928H669.969L670.853 379.052V373.204H665.277V407H670.853V392.04C670.853 382.928 675.885 377.284 683.025 377.284ZM740.796 407V357.02H735.22V378.168L736.172 382.044H734.54C733.112 376.74 728.556 372.524 720.872 372.524C711.08 372.524 704.756 380.072 704.756 390.068C704.756 400.132 711.08 407.68 720.872 407.68C728.556 407.68 733.112 403.464 734.54 398.228H736.172L735.22 402.036V407H740.796ZM735.22 390.068C735.22 399.112 729.508 402.92 722.504 402.92C715.5 402.92 710.332 399.112 710.332 390.068C710.332 381.092 715.5 377.284 722.504 377.284C729.508 377.284 735.22 381.092 735.22 390.068ZM786.85 359.06H773.386V407H778.962V390.476H786.85C798.954 390.476 806.638 387.28 806.638 374.7C806.638 362.188 798.954 359.06 786.85 359.06ZM786.918 385.716H778.962V363.82H786.918C795.078 363.82 801.062 365.316 801.062 374.7C801.062 384.22 795.078 385.716 786.918 385.716ZM814.359 407H819.935V377.352L837.819 377.964V373.204L819.051 372.592C815.855 372.456 814.359 374.02 814.359 377.216V407ZM854.302 367.832C857.022 367.832 859.198 365.792 859.198 363.072C859.198 360.488 857.022 358.38 854.302 358.38C851.514 358.38 849.406 360.488 849.406 363.072C849.406 365.792 851.514 367.832 854.302 367.832ZM843.014 407H867.29V402.24H857.77V376.604C857.77 374.02 856.546 372.252 853.35 372.524L845.53 373.204V377.964L852.534 377.352V402.24H843.014V407ZM895.156 373.204L884.684 405.436H883.052L872.512 373.204H867.072L878.224 407H889.512L900.528 373.204H895.156ZM904.905 397.616C904.905 401.152 906.401 407.68 916.193 407.68C924.353 407.68 927.957 402.852 929.249 397.684H930.881L929.997 401.22V403.056C929.997 405.572 931.425 407 934.009 407H939.993V402.24H935.029V387.824C935.029 378.78 929.385 372.524 919.933 372.524C910.345 372.524 905.041 378.78 905.041 385.784H910.481C910.481 379.392 915.037 377.216 919.933 377.216C925.781 377.216 929.113 380.276 929.453 386.464L915.989 387.756C908.101 388.572 904.905 392.244 904.905 397.616ZM910.481 396.936C910.481 393.604 912.657 392.312 916.941 391.904L929.453 390.612C929.453 397.616 924.557 402.92 916.873 402.92C912.929 402.92 910.481 400.812 910.481 396.936ZM943.819 390.068C943.819 399.86 950.143 407.68 961.091 407.68C967.619 407.68 975.983 404.008 976.867 394.216H971.223C970.271 400.676 965.987 402.92 961.091 402.92C953.067 402.92 949.395 397.072 949.395 390.068C949.395 383.132 953.067 377.284 961.091 377.284C965.987 377.284 970.271 379.528 971.223 385.988H976.867C975.983 376.196 967.619 372.524 961.091 372.524C950.143 372.524 943.819 380.344 943.819 390.068ZM1008.63 373.204L998.022 399.52V402.104H996.39V399.52L985.782 373.204H979.662L994.418 406.66V415.364L982.246 414.752V419.512L995.302 420.124C998.498 420.26 999.994 418.696 999.994 416.112V406.66L1014.68 373.204H1008.63Z"/>
</mask>
<path d="M387.964 407H417.68V402.24H393.54V385.376H414.28V380.616H393.54V363.82H417.68V359.06H387.964V407ZM443.896 377.284C449.676 377.284 452.464 380.004 452.464 387.076V407H457.972V386.328C457.972 376.944 453.008 372.524 445.392 372.524C438.048 372.524 433.764 376.808 432.404 382.928H430.84L431.724 379.052V373.204H426.148V407H431.724V392.04C431.724 382.928 436.756 377.284 443.896 377.284ZM501.667 407V357.02H496.091V378.168L497.043 382.044H495.411C493.983 376.74 489.427 372.524 481.743 372.524C471.951 372.524 465.627 380.072 465.627 390.068C465.627 400.132 471.951 407.68 481.743 407.68C489.427 407.68 493.983 403.464 495.411 398.228H497.043L496.091 402.036V407H501.667ZM496.091 390.068C496.091 399.112 490.379 402.92 483.375 402.92C476.371 402.92 471.203 399.112 471.203 390.068C471.203 381.092 476.371 377.284 483.375 377.284C490.379 377.284 496.091 381.092 496.091 390.068ZM543.845 402.988V377.964H554.385V373.204H543.845V362.8L538.337 364.5V373.204H530.857V377.964H538.337V403.056C538.337 406.184 539.765 407.884 542.961 407.68L555.745 407V402.24L543.845 402.988ZM560.256 390.068C560.256 399.928 567.328 407.68 578.14 407.68C588.884 407.68 595.888 399.928 595.888 390.068C595.888 380.276 588.884 372.524 578.14 372.524C567.328 372.524 560.256 380.276 560.256 390.068ZM565.832 390.068C565.832 383.064 570.116 377.284 578.14 377.284C586.096 377.284 590.38 383.064 590.38 390.068C590.38 397.14 586.096 402.92 578.14 402.92C570.116 402.92 565.832 397.14 565.832 390.068ZM627.093 407H656.809V402.24H632.669V385.376H653.409V380.616H632.669V363.82H656.809V359.06H627.093V407ZM683.025 377.284C688.805 377.284 691.593 380.004 691.593 387.076V407H697.101V386.328C697.101 376.944 692.137 372.524 684.521 372.524C677.177 372.524 672.893 376.808 671.533 382.928H669.969L670.853 379.052V373.204H665.277V407H670.853V392.04C670.853 382.928 675.885 377.284 683.025 377.284ZM740.796 407V357.02H735.22V378.168L736.172 382.044H734.54C733.112 376.74 728.556 372.524 720.872 372.524C711.08 372.524 704.756 380.072 704.756 390.068C704.756 400.132 711.08 407.68 720.872 407.68C728.556 407.68 733.112 403.464 734.54 398.228H736.172L735.22 402.036V407H740.796ZM735.22 390.068C735.22 399.112 729.508 402.92 722.504 402.92C715.5 402.92 710.332 399.112 710.332 390.068C710.332 381.092 715.5 377.284 722.504 377.284C729.508 377.284 735.22 381.092 735.22 390.068ZM786.85 359.06H773.386V407H778.962V390.476H786.85C798.954 390.476 806.638 387.28 806.638 374.7C806.638 362.188 798.954 359.06 786.85 359.06ZM786.918 385.716H778.962V363.82H786.918C795.078 363.82 801.062 365.316 801.062 374.7C801.062 384.22 795.078 385.716 786.918 385.716ZM814.359 407H819.935V377.352L837.819 377.964V373.204L819.051 372.592C815.855 372.456 814.359 374.02 814.359 377.216V407ZM854.302 367.832C857.022 367.832 859.198 365.792 859.198 363.072C859.198 360.488 857.022 358.38 854.302 358.38C851.514 358.38 849.406 360.488 849.406 363.072C849.406 365.792 851.514 367.832 854.302 367.832ZM843.014 407H867.29V402.24H857.77V376.604C857.77 374.02 856.546 372.252 853.35 372.524L845.53 373.204V377.964L852.534 377.352V402.24H843.014V407ZM895.156 373.204L884.684 405.436H883.052L872.512 373.204H867.072L878.224 407H889.512L900.528 373.204H895.156ZM904.905 397.616C904.905 401.152 906.401 407.68 916.193 407.68C924.353 407.68 927.957 402.852 929.249 397.684H930.881L929.997 401.22V403.056C929.997 405.572 931.425 407 934.009 407H939.993V402.24H935.029V387.824C935.029 378.78 929.385 372.524 919.933 372.524C910.345 372.524 905.041 378.78 905.041 385.784H910.481C910.481 379.392 915.037 377.216 919.933 377.216C925.781 377.216 929.113 380.276 929.453 386.464L915.989 387.756C908.101 388.572 904.905 392.244 904.905 397.616ZM910.481 396.936C910.481 393.604 912.657 392.312 916.941 391.904L929.453 390.612C929.453 397.616 924.557 402.92 916.873 402.92C912.929 402.92 910.481 400.812 910.481 396.936ZM943.819 390.068C943.819 399.86 950.143 407.68 961.091 407.68C967.619 407.68 975.983 404.008 976.867 394.216H971.223C970.271 400.676 965.987 402.92 961.091 402.92C953.067 402.92 949.395 397.072 949.395 390.068C949.395 383.132 953.067 377.284 961.091 377.284C965.987 377.284 970.271 379.528 971.223 385.988H976.867C975.983 376.196 967.619 372.524 961.091 372.524C950.143 372.524 943.819 380.344 943.819 390.068ZM1008.63 373.204L998.022 399.52V402.104H996.39V399.52L985.782 373.204H979.662L994.418 406.66V415.364L982.246 414.752V419.512L995.302 420.124C998.498 420.26 999.994 418.696 999.994 416.112V406.66L1014.68 373.204H1008.63Z" fill="white"/>
<path d="M387.964 407H385.964V409H387.964V407ZM417.68 407V409H419.68V407H417.68ZM417.68 402.24H419.68V400.24H417.68V402.24ZM393.54 402.24H391.54V404.24H393.54V402.24ZM393.54 385.376V383.376H391.54V385.376H393.54ZM414.28 385.376V387.376H416.28V385.376H414.28ZM414.28 380.616H416.28V378.616H414.28V380.616ZM393.54 380.616H391.54V382.616H393.54V380.616ZM393.54 363.82V361.82H391.54V363.82H393.54ZM417.68 363.82V365.82H419.68V363.82H417.68ZM417.68 359.06H419.68V357.06H417.68V359.06ZM387.964 359.06V357.06H385.964V359.06H387.964ZM387.964 409H417.68V405H387.964V409ZM419.68 407V402.24H415.68V407H419.68ZM417.68 400.24H393.54V404.24H417.68V400.24ZM395.54 402.24V385.376H391.54V402.24H395.54ZM393.54 387.376H414.28V383.376H393.54V387.376ZM416.28 385.376V380.616H412.28V385.376H416.28ZM414.28 378.616H393.54V382.616H414.28V378.616ZM395.54 380.616V363.82H391.54V380.616H395.54ZM393.54 365.82H417.68V361.82H393.54V365.82ZM419.68 363.82V359.06H415.68V363.82H419.68ZM417.68 357.06H387.964V361.06H417.68V357.06ZM385.964 359.06V407H389.964V359.06H385.964ZM452.464 407H450.464V409H452.464V407ZM457.972 407V409H459.972V407H457.972ZM432.404 382.928V384.928H434.008L434.356 383.362L432.404 382.928ZM430.84 382.928L428.89 382.483L428.332 384.928H430.84V382.928ZM431.724 379.052L433.674 379.497L433.724 379.277V379.052H431.724ZM431.724 373.204H433.724V371.204H431.724V373.204ZM426.148 373.204V371.204H424.148V373.204H426.148ZM426.148 407H424.148V409H426.148V407ZM431.724 407V409H433.724V407H431.724ZM443.896 379.284C446.507 379.284 447.982 379.898 448.866 380.872C449.793 381.893 450.464 383.735 450.464 387.076H454.464C454.464 383.345 453.74 380.291 451.828 378.184C449.873 376.03 447.065 375.284 443.896 375.284V379.284ZM450.464 387.076V407H454.464V387.076H450.464ZM452.464 409H457.972V405H452.464V409ZM459.972 407V386.328H455.972V407H459.972ZM459.972 386.328C459.972 381.298 458.638 377.282 455.978 374.52C453.31 371.748 449.583 370.524 445.392 370.524V374.524C448.816 374.524 451.379 375.51 453.097 377.294C454.824 379.088 455.972 381.974 455.972 386.328H459.972ZM445.392 370.524C441.313 370.524 437.927 371.723 435.358 373.907C432.803 376.08 431.206 379.099 430.451 382.494L434.356 383.362C434.962 380.637 436.186 378.454 437.949 376.955C439.698 375.467 442.126 374.524 445.392 374.524V370.524ZM432.404 380.928H430.84V384.928H432.404V380.928ZM432.79 383.373L433.674 379.497L429.774 378.607L428.89 382.483L432.79 383.373ZM433.724 379.052V373.204H429.724V379.052H433.724ZM431.724 371.204H426.148V375.204H431.724V371.204ZM424.148 373.204V407H428.148V373.204H424.148ZM426.148 409H431.724V405H426.148V409ZM433.724 407V392.04H429.724V407H433.724ZM433.724 392.04C433.724 387.84 434.882 384.644 436.661 382.534C438.416 380.453 440.891 379.284 443.896 379.284V375.284C439.76 375.284 436.149 376.937 433.603 379.956C431.082 382.946 429.724 387.128 429.724 392.04H433.724ZM501.667 407V409H503.667V407H501.667ZM501.667 357.02H503.667V355.02H501.667V357.02ZM496.091 357.02V355.02H494.091V357.02H496.091ZM496.091 378.168H494.091V378.41L494.149 378.645L496.091 378.168ZM497.043 382.044V384.044H499.594L498.986 381.567L497.043 382.044ZM495.411 382.044L493.48 382.564L493.879 384.044H495.411V382.044ZM495.411 398.228V396.228H493.884L493.482 397.702L495.411 398.228ZM497.043 398.228L498.984 398.713L499.605 396.228H497.043V398.228ZM496.091 402.036L494.151 401.551L494.091 401.79V402.036H496.091ZM496.091 407H494.091V409H496.091V407ZM503.667 407V357.02H499.667V407H503.667ZM501.667 355.02H496.091V359.02H501.667V355.02ZM494.091 357.02V378.168H498.091V357.02H494.091ZM494.149 378.645L495.101 382.521L498.986 381.567L498.034 377.691L494.149 378.645ZM497.043 380.044H495.411V384.044H497.043V380.044ZM497.343 381.524C495.673 375.321 490.305 370.524 481.743 370.524V374.524C488.55 374.524 492.294 378.159 493.48 382.564L497.343 381.524ZM481.743 370.524C476.3 370.524 471.721 372.638 468.523 376.214C465.343 379.77 463.627 384.653 463.627 390.068H467.627C467.627 385.487 469.074 381.598 471.504 378.881C473.916 376.184 477.395 374.524 481.743 374.524V370.524ZM463.627 390.068C463.627 395.513 465.341 400.414 468.521 403.979C471.72 407.566 476.3 409.68 481.743 409.68V405.68C477.395 405.68 473.917 404.02 471.506 401.317C469.076 398.592 467.627 394.687 467.627 390.068H463.627ZM481.743 409.68C490.3 409.68 495.668 404.889 497.341 398.754L493.482 397.702C492.299 402.039 488.555 405.68 481.743 405.68V409.68ZM495.411 400.228H497.043V396.228H495.411V400.228ZM495.103 397.743L494.151 401.551L498.032 402.521L498.984 398.713L495.103 397.743ZM494.091 402.036V407H498.091V402.036H494.091ZM496.091 409H501.667V405H496.091V409ZM494.091 390.068C494.091 394.149 492.818 396.775 491.019 398.402C489.183 400.061 486.537 400.92 483.375 400.92V404.92C487.218 404.92 490.929 403.875 493.701 401.369C496.508 398.831 498.091 395.031 498.091 390.068H494.091ZM483.375 400.92C480.219 400.92 477.736 400.065 476.049 398.443C474.377 396.838 473.203 394.209 473.203 390.068H469.203C469.203 394.971 470.613 398.768 473.277 401.328C475.925 403.871 479.528 404.92 483.375 404.92V400.92ZM473.203 390.068C473.203 385.965 474.375 383.354 476.046 381.755C477.734 380.14 480.219 379.284 483.375 379.284V375.284C479.528 375.284 475.927 376.332 473.28 378.865C470.616 381.414 469.203 385.195 469.203 390.068H473.203ZM483.375 379.284C486.537 379.284 489.185 380.143 491.022 381.796C492.821 383.417 494.091 386.025 494.091 390.068H498.091C498.091 385.135 496.505 381.351 493.698 378.824C490.927 376.329 487.218 375.284 483.375 375.284V379.284ZM543.845 402.988H541.845V405.118L543.97 404.984L543.845 402.988ZM543.845 377.964V375.964H541.845V377.964H543.845ZM554.385 377.964V379.964H556.385V377.964H554.385ZM554.385 373.204H556.385V371.204H554.385V373.204ZM543.845 373.204H541.845V375.204H543.845V373.204ZM543.845 362.8H545.845V360.09L543.255 360.889L543.845 362.8ZM538.337 364.5L537.747 362.589L536.337 363.024V364.5H538.337ZM538.337 373.204V375.204H540.337V373.204H538.337ZM530.857 373.204V371.204H528.857V373.204H530.857ZM530.857 377.964H528.857V379.964H530.857V377.964ZM538.337 377.964H540.337V375.964H538.337V377.964ZM542.961 407.68L542.855 405.683L542.844 405.683L542.834 405.684L542.961 407.68ZM555.745 407L555.851 408.997L557.745 408.896V407H555.745ZM555.745 402.24H557.745V400.11L555.62 400.244L555.745 402.24ZM545.845 402.988V377.964H541.845V402.988H545.845ZM543.845 379.964H554.385V375.964H543.845V379.964ZM556.385 377.964V373.204H552.385V377.964H556.385ZM554.385 371.204H543.845V375.204H554.385V371.204ZM545.845 373.204V362.8H541.845V373.204H545.845ZM543.255 360.889L537.747 362.589L538.927 366.411L544.435 364.711L543.255 360.889ZM536.337 364.5V373.204H540.337V364.5H536.337ZM538.337 371.204H530.857V375.204H538.337V371.204ZM528.857 373.204V377.964H532.857V373.204H528.857ZM530.857 379.964H538.337V375.964H530.857V379.964ZM536.337 377.964V403.056H540.337V377.964H536.337ZM536.337 403.056C536.337 404.874 536.746 406.684 538.006 408C539.307 409.36 541.133 409.801 543.088 409.676L542.834 405.684C541.593 405.763 541.107 405.456 540.895 405.235C540.642 404.97 540.337 404.366 540.337 403.056H536.337ZM543.067 409.677L555.851 408.997L555.639 405.003L542.855 405.683L543.067 409.677ZM557.745 407V402.24H553.745V407H557.745ZM555.62 400.244L543.719 400.992L543.97 404.984L555.87 404.236L555.62 400.244ZM558.256 390.068C558.256 401.002 566.193 409.68 578.14 409.68V405.68C568.463 405.68 562.256 398.854 562.256 390.068H558.256ZM578.14 409.68C590.035 409.68 597.888 400.986 597.888 390.068H593.888C593.888 398.87 587.734 405.68 578.14 405.68V409.68ZM597.888 390.068C597.888 379.213 590.03 370.524 578.14 370.524V374.524C587.739 374.524 593.888 381.339 593.888 390.068H597.888ZM578.14 370.524C566.198 370.524 558.256 379.197 558.256 390.068H562.256C562.256 381.355 568.458 374.524 578.14 374.524V370.524ZM567.832 390.068C567.832 386.962 568.781 384.27 570.469 382.382C572.128 380.525 574.643 379.284 578.14 379.284V375.284C573.613 375.284 569.974 376.933 567.486 379.717C565.026 382.47 563.832 386.17 563.832 390.068H567.832ZM578.14 379.284C581.598 379.284 584.096 380.522 585.75 382.379C587.431 384.268 588.38 386.961 588.38 390.068H592.38C592.38 386.171 591.187 382.472 588.738 379.72C586.26 376.936 582.638 375.284 578.14 375.284V379.284ZM588.38 390.068C588.38 393.213 587.429 395.923 585.748 397.819C584.095 399.683 581.598 400.92 578.14 400.92V404.92C582.639 404.92 586.262 403.267 588.74 400.473C591.19 397.711 592.38 393.995 592.38 390.068H588.38ZM578.14 400.92C574.644 400.92 572.13 399.679 570.471 397.816C568.784 395.921 567.832 393.213 567.832 390.068H563.832C563.832 393.995 565.023 397.713 567.484 400.476C569.973 403.271 573.613 404.92 578.14 404.92V400.92ZM627.093 407H625.093V409H627.093V407ZM656.809 407V409H658.809V407H656.809ZM656.809 402.24H658.809V400.24H656.809V402.24ZM632.669 402.24H630.669V404.24H632.669V402.24ZM632.669 385.376V383.376H630.669V385.376H632.669ZM653.409 385.376V387.376H655.409V385.376H653.409ZM653.409 380.616H655.409V378.616H653.409V380.616ZM632.669 380.616H630.669V382.616H632.669V380.616ZM632.669 363.82V361.82H630.669V363.82H632.669ZM656.809 363.82V365.82H658.809V363.82H656.809ZM656.809 359.06H658.809V357.06H656.809V359.06ZM627.093 359.06V357.06H625.093V359.06H627.093ZM627.093 409H656.809V405H627.093V409ZM658.809 407V402.24H654.809V407H658.809ZM656.809 400.24H632.669V404.24H656.809V400.24ZM634.669 402.24V385.376H630.669V402.24H634.669ZM632.669 387.376H653.409V383.376H632.669V387.376ZM655.409 385.376V380.616H651.409V385.376H655.409ZM653.409 378.616H632.669V382.616H653.409V378.616ZM634.669 380.616V363.82H630.669V380.616H634.669ZM632.669 365.82H656.809V361.82H632.669V365.82ZM658.809 363.82V359.06H654.809V363.82H658.809ZM656.809 357.06H627.093V361.06H656.809V357.06ZM625.093 359.06V407H629.093V359.06H625.093ZM691.592 407H689.592V409H691.592V407ZM697.1 407V409H699.1V407H697.1ZM671.533 382.928V384.928H673.137L673.485 383.362L671.533 382.928ZM669.969 382.928L668.019 382.483L667.461 384.928H669.969V382.928ZM670.853 379.052L672.802 379.497L672.853 379.277V379.052H670.853ZM670.853 373.204H672.853V371.204H670.853V373.204ZM665.276 373.204V371.204H663.276V373.204H665.276ZM665.276 407H663.276V409H665.276V407ZM670.853 407V409H672.853V407H670.853ZM683.025 379.284C685.635 379.284 687.111 379.898 687.995 380.872C688.922 381.893 689.592 383.735 689.592 387.076H693.592C693.592 383.345 692.869 380.291 690.957 378.184C689.002 376.03 686.194 375.284 683.025 375.284V379.284ZM689.592 387.076V407H693.592V387.076H689.592ZM691.592 409H697.1V405H691.592V409ZM699.1 407V386.328H695.1V407H699.1ZM699.1 386.328C699.1 381.298 697.767 377.282 695.107 374.52C692.439 371.748 688.712 370.524 684.521 370.524V374.524C687.945 374.524 690.508 375.51 692.226 377.294C693.952 379.088 695.1 381.974 695.1 386.328H699.1ZM684.521 370.524C680.442 370.524 677.056 371.723 674.487 373.907C671.932 376.08 670.335 379.099 669.58 382.494L673.485 383.362C674.09 380.637 675.315 378.454 677.078 376.955C678.827 375.467 681.255 374.524 684.521 374.524V370.524ZM671.533 380.928H669.969V384.928H671.533V380.928ZM671.918 383.373L672.802 379.497L668.903 378.607L668.019 382.483L671.918 383.373ZM672.853 379.052V373.204H668.853V379.052H672.853ZM670.853 371.204H665.276V375.204H670.853V371.204ZM663.276 373.204V407H667.276V373.204H663.276ZM665.276 409H670.853V405H665.276V409ZM672.853 407V392.04H668.853V407H672.853ZM672.853 392.04C672.853 387.84 674.011 384.644 675.79 382.534C677.545 380.453 680.02 379.284 683.025 379.284V375.284C678.889 375.284 675.278 376.937 672.732 379.956C670.21 382.946 668.853 387.128 668.853 392.04H672.853ZM740.796 407V409H742.796V407H740.796ZM740.796 357.02H742.796V355.02H740.796V357.02ZM735.22 357.02V355.02H733.22V357.02H735.22ZM735.22 378.168H733.22V378.41L733.278 378.645L735.22 378.168ZM736.172 382.044V384.044H738.723L738.115 381.567L736.172 382.044ZM734.54 382.044L732.609 382.564L733.008 384.044H734.54V382.044ZM734.54 398.228V396.228H733.013L732.611 397.702L734.54 398.228ZM736.172 398.228L738.113 398.713L738.734 396.228H736.172V398.228ZM735.22 402.036L733.28 401.551L733.22 401.79V402.036H735.22ZM735.22 407H733.22V409H735.22V407ZM742.796 407V357.02H738.796V407H742.796ZM740.796 355.02H735.22V359.02H740.796V355.02ZM733.22 357.02V378.168H737.22V357.02H733.22ZM733.278 378.645L734.23 382.521L738.115 381.567L737.163 377.691L733.278 378.645ZM736.172 380.044H734.54V384.044H736.172V380.044ZM736.472 381.524C734.802 375.321 729.434 370.524 720.872 370.524V374.524C727.679 374.524 731.423 378.159 732.609 382.564L736.472 381.524ZM720.872 370.524C715.429 370.524 710.85 372.638 707.652 376.214C704.472 379.77 702.756 384.653 702.756 390.068H706.756C706.756 385.487 708.203 381.598 710.633 378.881C713.045 376.184 716.524 374.524 720.872 374.524V370.524ZM702.756 390.068C702.756 395.513 704.47 400.414 707.65 403.979C710.849 407.566 715.428 409.68 720.872 409.68V405.68C716.524 405.68 713.046 404.02 710.635 401.317C708.205 398.592 706.756 394.687 706.756 390.068H702.756ZM720.872 409.68C729.429 409.68 734.797 404.889 736.47 398.754L732.611 397.702C731.428 402.039 727.684 405.68 720.872 405.68V409.68ZM734.54 400.228H736.172V396.228H734.54V400.228ZM734.232 397.743L733.28 401.551L737.161 402.521L738.113 398.713L734.232 397.743ZM733.22 402.036V407H737.22V402.036H733.22ZM735.22 409H740.796V405H735.22V409ZM733.22 390.068C733.22 394.149 731.947 396.775 730.148 398.402C728.312 400.061 725.665 400.92 722.504 400.92V404.92C726.347 404.92 730.058 403.875 732.83 401.369C735.637 398.831 737.22 395.031 737.22 390.068H733.22ZM722.504 400.92C719.348 400.92 716.865 400.065 715.177 398.443C713.506 396.838 712.332 394.209 712.332 390.068H708.332C708.332 394.971 709.742 398.768 712.406 401.328C715.054 403.871 718.657 404.92 722.504 404.92V400.92ZM712.332 390.068C712.332 385.965 713.504 383.354 715.175 381.755C716.863 380.14 719.348 379.284 722.504 379.284V375.284C718.657 375.284 715.056 376.332 712.409 378.865C709.745 381.414 708.332 385.195 708.332 390.068H712.332ZM722.504 379.284C725.666 379.284 728.314 380.143 730.151 381.796C731.95 383.417 733.22 386.025 733.22 390.068H737.22C737.22 385.135 735.634 381.351 732.827 378.824C730.056 376.329 726.347 375.284 722.504 375.284V379.284ZM773.386 359.06V357.06H771.386V359.06H773.386ZM773.386 407H771.386V409H773.386V407ZM778.962 407V409H780.962V407H778.962ZM778.962 390.476V388.476H776.962V390.476H778.962ZM778.962 385.716H776.962V387.716H778.962V385.716ZM778.962 363.82V361.82H776.962V363.82H778.962ZM786.85 357.06H773.386V361.06H786.85V357.06ZM771.386 359.06V407H775.386V359.06H771.386ZM773.386 409H778.962V405H773.386V409ZM780.962 407V390.476H776.962V407H780.962ZM778.962 392.476H786.85V388.476H778.962V392.476ZM786.85 392.476C792.984 392.476 798.458 391.687 802.419 388.951C806.554 386.096 808.638 381.426 808.638 374.7H804.638C804.638 380.554 802.88 383.772 800.146 385.66C797.239 387.667 792.82 388.476 786.85 388.476V392.476ZM808.638 374.7C808.638 368.004 806.55 363.364 802.411 360.537C798.451 357.831 792.979 357.06 786.85 357.06V361.06C792.825 361.06 797.247 361.853 800.155 363.839C802.883 365.704 804.638 368.884 804.638 374.7H808.638ZM786.918 383.716H778.962V387.716H786.918V383.716ZM780.962 385.716V363.82H776.962V385.716H780.962ZM778.962 365.82H786.918V361.82H778.962V365.82ZM786.918 365.82C790.989 365.82 794.009 366.219 796.002 367.445C797.758 368.524 799.062 370.479 799.062 374.7H803.062C803.062 369.537 801.374 366.052 798.097 364.037C795.059 362.169 791.007 361.82 786.918 361.82V365.82ZM799.062 374.7C799.062 379.001 797.749 380.988 795.994 382.079C794.004 383.316 790.99 383.716 786.918 383.716V387.716C791.006 387.716 795.063 387.368 798.106 385.477C801.382 383.44 803.062 379.919 803.062 374.7H799.062ZM814.359 407H812.359V409H814.359V407ZM819.935 407V409H821.935V407H819.935ZM819.935 377.352L820.003 375.353L817.935 375.282V377.352H819.935ZM837.819 377.964L837.75 379.963L839.819 380.034V377.964H837.819ZM837.819 373.204H839.819V371.268L837.884 371.205L837.819 373.204ZM819.051 372.592L818.966 374.59L818.975 374.591L818.985 374.591L819.051 372.592ZM814.359 409H819.935V405H814.359V409ZM821.935 407V377.352H817.935V407H821.935ZM819.866 379.351L837.75 379.963L837.887 375.965L820.003 375.353L819.866 379.351ZM839.819 377.964V373.204H835.819V377.964H839.819ZM837.884 371.205L819.116 370.593L818.985 374.591L837.753 375.203L837.884 371.205ZM819.136 370.594C817.229 370.513 815.409 370.923 814.092 372.24C812.791 373.541 812.359 375.35 812.359 377.216H816.359C816.359 375.886 816.674 375.315 816.92 375.069C817.15 374.839 817.676 374.535 818.966 374.59L819.136 370.594ZM812.359 377.216V407H816.359V377.216H812.359ZM843.014 407H841.014V409H843.014V407ZM867.29 407V409H869.29V407H867.29ZM867.29 402.24H869.29V400.24H867.29V402.24ZM857.77 402.24H855.77V404.24H857.77V402.24ZM853.35 372.524L853.181 370.531L853.177 370.532L853.35 372.524ZM845.53 373.204L845.357 371.212L843.53 371.37V373.204H845.53ZM845.53 377.964H843.53V380.146L845.704 379.956L845.53 377.964ZM852.534 377.352H854.534V375.17L852.36 375.36L852.534 377.352ZM852.534 402.24V404.24H854.534V402.24H852.534ZM843.014 402.24V400.24H841.014V402.24H843.014ZM854.302 369.832C858.052 369.832 861.198 366.97 861.198 363.072H857.198C857.198 364.614 855.992 365.832 854.302 365.832V369.832ZM861.198 363.072C861.198 359.31 858.052 356.38 854.302 356.38V360.38C855.992 360.38 857.198 361.666 857.198 363.072H861.198ZM854.302 356.38C850.466 356.38 847.406 359.328 847.406 363.072H851.406C851.406 361.648 852.563 360.38 854.302 360.38V356.38ZM847.406 363.072C847.406 366.952 850.466 369.832 854.302 369.832V365.832C852.563 365.832 851.406 364.632 851.406 363.072H847.406ZM843.014 409H867.29V405H843.014V409ZM869.29 407V402.24H865.29V407H869.29ZM867.29 400.24H857.77V404.24H867.29V400.24ZM859.77 402.24V376.604H855.77V402.24H859.77ZM859.77 376.604C859.77 375.046 859.407 373.357 858.198 372.104C856.941 370.802 855.158 370.363 853.181 370.531L853.52 374.517C854.739 374.413 855.165 374.722 855.32 374.882C855.522 375.091 855.77 375.578 855.77 376.604H859.77ZM853.177 370.532L845.357 371.212L845.703 375.196L853.523 374.516L853.177 370.532ZM843.53 373.204V377.964H847.53V373.204H843.53ZM845.704 379.956L852.708 379.344L852.36 375.36L845.356 375.972L845.704 379.956ZM850.534 377.352V402.24H854.534V377.352H850.534ZM852.534 400.24H843.014V404.24H852.534V400.24ZM841.014 402.24V407H845.014V402.24H841.014ZM895.156 373.204V371.204H893.703L893.254 372.586L895.156 373.204ZM884.684 405.436V407.436H886.137L886.586 406.054L884.684 405.436ZM883.052 405.436L881.151 406.058L881.602 407.436H883.052V405.436ZM872.512 373.204L874.413 372.582L873.962 371.204H872.512V373.204ZM867.072 373.204V371.204H864.306L865.173 373.831L867.072 373.204ZM878.224 407L876.325 407.627L876.778 409H878.224V407ZM889.512 407V409H890.963L891.413 407.62L889.512 407ZM900.528 373.204L902.429 373.824L903.283 371.204H900.528V373.204ZM893.254 372.586L882.782 404.818L886.586 406.054L897.058 373.822L893.254 372.586ZM884.684 403.436H883.052V407.436H884.684V403.436ZM884.953 404.814L874.413 372.582L870.611 373.826L881.151 406.058L884.953 404.814ZM872.512 371.204H867.072V375.204H872.512V371.204ZM865.173 373.831L876.325 407.627L880.123 406.373L868.971 372.577L865.173 373.831ZM878.224 409H889.512V405H878.224V409ZM891.413 407.62L902.429 373.824L898.626 372.584L887.61 406.38L891.413 407.62ZM900.528 371.204H895.156V375.204H900.528V371.204ZM929.249 397.684V395.684H927.687L927.308 397.199L929.249 397.684ZM930.881 397.684L932.821 398.169L933.442 395.684H930.881V397.684ZM929.997 401.22L928.057 400.735L927.997 400.974V401.22H929.997ZM939.993 407V409H941.993V407H939.993ZM939.993 402.24H941.993V400.24H939.993V402.24ZM935.029 402.24H933.029V404.24H935.029V402.24ZM905.041 385.784H903.041V387.784H905.041V385.784ZM910.481 385.784V387.784H912.481V385.784H910.481ZM929.453 386.464L929.644 388.455L931.555 388.271L931.45 386.354L929.453 386.464ZM915.989 387.756L915.798 385.765L915.79 385.766L915.783 385.767L915.989 387.756ZM916.941 391.904L917.13 393.895L917.138 393.894L917.146 393.893L916.941 391.904ZM929.453 390.612H931.453V388.395L929.247 388.623L929.453 390.612ZM902.905 397.616C902.905 399.609 903.317 402.631 905.292 405.195C907.343 407.857 910.809 409.68 916.193 409.68V405.68C911.784 405.68 909.606 404.239 908.461 402.753C907.24 401.169 906.905 399.159 906.905 397.616H902.905ZM916.193 409.68C920.695 409.68 924.129 408.335 926.626 406.114C929.091 403.92 930.476 401.02 931.189 398.169L927.308 397.199C926.729 399.516 925.666 401.614 923.967 403.126C922.298 404.611 919.851 405.68 916.193 405.68V409.68ZM929.249 399.684H930.881V395.684H929.249V399.684ZM928.94 397.199L928.057 400.735L931.937 401.705L932.821 398.169L928.94 397.199ZM927.997 401.22V403.056H931.997V401.22H927.997ZM927.997 403.056C927.997 404.687 928.466 406.247 929.628 407.395C930.787 408.539 932.358 409 934.009 409V405C933.076 405 932.641 404.747 932.439 404.548C932.241 404.353 931.997 403.941 931.997 403.056H927.997ZM934.009 409H939.993V405H934.009V409ZM941.993 407V402.24H937.993V407H941.993ZM939.993 400.24H935.029V404.24H939.993V400.24ZM937.029 402.24V387.824H933.029V402.24H937.029ZM937.029 387.824C937.029 382.886 935.482 378.53 932.466 375.396C929.441 372.251 925.116 370.524 919.933 370.524V374.524C924.202 374.524 927.425 375.925 929.584 378.169C931.754 380.424 933.029 383.718 933.029 387.824H937.029ZM919.933 370.524C914.69 370.524 910.446 372.244 907.501 375.089C904.565 377.927 903.041 381.771 903.041 385.784H907.041C907.041 382.793 908.168 380.007 910.281 377.966C912.385 375.932 915.588 374.524 919.933 374.524V370.524ZM905.041 387.784H910.481V383.784H905.041V387.784ZM912.481 385.784C912.481 383.118 913.399 381.602 914.588 380.69C915.865 379.71 917.737 379.216 919.933 379.216V375.216C917.232 375.216 914.378 375.81 912.154 377.516C909.841 379.29 908.481 382.058 908.481 385.784H912.481ZM919.933 379.216C922.518 379.216 924.251 379.888 925.375 380.964C926.502 382.044 927.304 383.805 927.456 386.574L931.45 386.354C931.262 382.935 930.227 380.072 928.142 378.075C926.052 376.074 923.196 375.216 919.933 375.216V379.216ZM929.262 384.473L915.798 385.765L916.18 389.747L929.644 388.455L929.262 384.473ZM915.783 385.767C911.593 386.2 908.335 387.42 906.113 389.526C903.844 391.676 902.905 394.512 902.905 397.616H906.905C906.905 395.348 907.564 393.662 908.864 392.429C910.213 391.152 912.497 390.128 916.195 389.745L915.783 385.767ZM912.481 396.936C912.481 395.774 912.82 395.279 913.286 394.937C913.915 394.477 915.077 394.091 917.13 393.895L916.751 389.913C914.521 390.125 912.453 390.589 910.923 391.71C909.23 392.949 908.481 394.766 908.481 396.936H912.481ZM917.146 393.893L929.658 392.601L929.247 388.623L916.735 389.915L917.146 393.893ZM927.453 390.612C927.453 393.64 926.401 396.194 924.625 397.984C922.854 399.768 920.239 400.92 916.873 400.92V404.92C921.191 404.92 924.866 403.42 927.464 400.801C930.057 398.188 931.453 394.588 931.453 390.612H927.453ZM916.873 400.92C915.24 400.92 914.181 400.486 913.548 399.906C912.941 399.351 912.481 398.439 912.481 396.936H908.481C908.481 399.309 909.244 401.389 910.847 402.857C912.424 404.3 914.561 404.92 916.873 404.92V400.92ZM976.867 394.216L978.859 394.396L979.056 392.216H976.867V394.216ZM971.223 394.216V392.216H969.496L969.244 393.924L971.223 394.216ZM971.223 385.988L969.244 386.28L969.496 387.988H971.223V385.988ZM976.867 385.988V387.988H979.056L978.859 385.808L976.867 385.988ZM941.819 390.068C941.819 395.39 943.54 400.303 946.883 403.906C950.245 407.53 955.113 409.68 961.091 409.68V405.68C956.121 405.68 952.352 403.92 949.815 401.186C947.259 398.431 945.819 394.538 945.819 390.068H941.819ZM961.091 409.68C964.692 409.68 968.839 408.674 972.253 406.251C975.725 403.786 978.362 399.9 978.859 394.396L974.875 394.036C974.488 398.324 972.5 401.17 969.938 402.989C967.317 404.85 964.018 405.68 961.091 405.68V409.68ZM976.867 392.216H971.223V396.216H976.867V392.216ZM969.244 393.924C968.83 396.735 967.738 398.401 966.426 399.398C965.076 400.423 963.254 400.92 961.091 400.92V404.92C963.824 404.92 966.592 404.295 968.845 402.583C971.137 400.843 972.664 398.157 973.201 394.508L969.244 393.924ZM961.091 400.92C957.613 400.92 955.281 399.678 953.779 397.851C952.231 395.967 951.395 393.248 951.395 390.068H947.395C947.395 393.892 948.395 397.599 950.689 400.39C953.029 403.238 956.545 404.92 961.091 404.92V400.92ZM951.395 390.068C951.395 386.926 952.229 384.225 953.777 382.348C955.279 380.526 957.612 379.284 961.091 379.284V375.284C956.545 375.284 953.031 376.966 950.691 379.802C948.397 382.583 947.395 386.274 947.395 390.068H951.395ZM961.091 379.284C963.254 379.284 965.076 379.781 966.426 380.806C967.738 381.803 968.83 383.469 969.244 386.28L973.201 385.696C972.664 382.047 971.137 379.361 968.845 377.621C966.592 375.909 963.824 375.284 961.091 375.284V379.284ZM971.223 387.988H976.867V383.988H971.223V387.988ZM978.859 385.808C978.362 380.304 975.725 376.418 972.253 373.953C968.839 371.53 964.692 370.524 961.091 370.524V374.524C964.018 374.524 967.317 375.354 969.938 377.215C972.5 379.034 974.488 381.88 974.875 386.168L978.859 385.808ZM961.091 370.524C955.113 370.524 950.247 372.674 946.885 376.287C943.542 379.88 941.819 384.777 941.819 390.068H945.819C945.819 385.635 947.257 381.76 949.814 379.012C952.351 376.284 956.121 374.524 961.091 374.524V370.524ZM1008.63 373.204V371.204H1007.28L1006.78 372.456L1008.63 373.204ZM998.022 399.52L996.167 398.772L996.022 399.132V399.52H998.022ZM998.022 402.104V404.104H1000.02V402.104H998.022ZM996.39 402.104H994.39V404.104H996.39V402.104ZM996.39 399.52H998.39V399.132L998.245 398.772L996.39 399.52ZM985.782 373.204L987.637 372.456L987.132 371.204H985.782V373.204ZM979.662 373.204V371.204H976.594L977.832 374.011L979.662 373.204ZM994.418 406.66H996.418V406.239L996.248 405.853L994.418 406.66ZM994.418 415.364L994.318 417.361L996.418 417.467V415.364H994.418ZM982.246 414.752L982.347 412.755L980.246 412.649V414.752H982.246ZM982.246 419.512H980.246V421.42L982.153 421.51L982.246 419.512ZM995.302 420.124L995.209 422.122L995.217 422.122L995.302 420.124ZM999.994 406.66L998.163 405.856L997.994 406.24V406.66H999.994ZM1014.68 373.204L1016.51 374.008L1017.74 371.204H1014.68V373.204ZM1006.78 372.456L996.167 398.772L999.877 400.268L1010.49 373.952L1006.78 372.456ZM996.022 399.52V402.104H1000.02V399.52H996.022ZM998.022 400.104H996.39V404.104H998.022V400.104ZM998.39 402.104V399.52H994.39V402.104H998.39ZM998.245 398.772L987.637 372.456L983.927 373.952L994.535 400.268L998.245 398.772ZM985.782 371.204H979.662V375.204H985.782V371.204ZM977.832 374.011L992.588 407.467L996.248 405.853L981.492 372.397L977.832 374.011ZM992.418 406.66V415.364H996.418V406.66H992.418ZM994.519 413.367L982.347 412.755L982.146 416.749L994.318 417.361L994.519 413.367ZM980.246 414.752V419.512H984.246V414.752H980.246ZM982.153 421.51L995.209 422.122L995.396 418.126L982.34 417.514L982.153 421.51ZM995.217 422.122C997.126 422.203 998.889 421.792 1000.19 420.624C1001.5 419.438 1001.99 417.782 1001.99 416.112H997.994C997.994 417.026 997.739 417.444 997.508 417.652C997.257 417.878 996.674 418.181 995.387 418.126L995.217 422.122ZM1001.99 416.112V406.66H997.994V416.112H1001.99ZM1001.83 407.464L1016.51 374.008L1012.85 372.4L998.163 405.856L1001.83 407.464ZM1014.68 371.204H1008.63V375.204H1014.68V371.204Z" fill="white" mask="url(#path-6-outside-1_50_2327)"/>
<path d="M1109.13 -38.0772L1478.05 -38.0771L1478.05 664.923L1109.13 664.923L1109.13 -38.0772Z" fill="url(#paint2_linear_50_2327)" stroke="url(#paint3_linear_50_2327)" stroke-width="2"/>
<g filter="url(#filter1_f_50_2327)">
<path d="M-79.0488 976.308L291.875 976.308L291.875 439.192L106.413 271.308L-79.0487 271.308L-79.0488 976.308Z" fill="url(#paint4_linear_50_2327)"/>
<path d="M290.375 439.858L290.375 974.808L-77.5488 974.808L-77.5487 272.808L105.835 272.808L290.375 439.858Z" stroke="url(#paint5_linear_50_2327)" stroke-width="3"/>
</g>
<g filter="url(#filter2_f_50_2327)">
<circle cx="166.5" cy="366.5" r="11.5" fill="#D9D9D9"/>
</g>
<path d="M738.527 747.036L736.402 748.336L721.724 757.259L716.319 747.382L723.39 734.434L706.573 724.184L703.884 722.552L703.451 722.289L705.734 720.906L719.612 712.454L724.229 720.906L725.147 722.552L726.026 724.184L737.294 744.781L738.527 747.036Z" fill="white"/>
<path d="M694.098 723.022H674.632L663.364 702.438L662.131 700.184L664.269 698.883L678.947 689.947L684.365 699.838L677.281 712.785L694.098 723.022Z" fill="white"/>
<path d="M719.128 735.624L714.51 744.076L713.605 745.722L712.7 747.382L701.445 767.951L700.212 770.206L698.087 768.906L683.383 759.97L688.813 750.066H702.967V725.803L705.263 727.186L719.128 735.624Z" fill="white"/>
<path d="M717.276 687.25L711.872 697.141H697.705V721.417L695.423 720.034L681.531 711.568L686.162 703.116L687.959 699.838L699.227 679.255L700.473 677L702.611 678.314L717.276 687.25Z" fill="white"/>
<path d="M699.857 726.314H662V746.787H699.857V726.314Z" fill="white"/>
<path d="M738.672 700.419V720.892H727.824L720.753 707.958L703.924 718.194L701.235 719.84L700.828 720.103V700.419H738.672Z" fill="white"/>
</g>
</g>
<defs>
<filter id="filter0_f_50_2327" x="-167.584" y="356.846" width="372.924" height="707" filterUnits="userSpaceOnUse" color-interpolation-filters="sRGB">
<feFlood flood-opacity="0" result="BackgroundImageFix"/>
<feBlend mode="normal" in="SourceGraphic" in2="BackgroundImageFix" result="shape"/>
<feGaussianBlur stdDeviation="0.5" result="effect1_foregroundBlur_50_2327"/>
</filter>
<filter id="filter1_f_50_2327" x="-80.0488" y="270.308" width="372.924" height="707" filterUnits="userSpaceOnUse" color-interpolation-filters="sRGB">
<feFlood flood-opacity="0" result="BackgroundImageFix"/>
<feBlend mode="normal" in="SourceGraphic" in2="BackgroundImageFix" result="shape"/>
<feGaussianBlur stdDeviation="0.5" result="effect1_foregroundBlur_50_2327"/>
</filter>
<filter id="filter2_f_50_2327" x="122" y="322" width="89" height="89" filterUnits="userSpaceOnUse" color-interpolation-filters="sRGB">
<feFlood flood-opacity="0" result="BackgroundImageFix"/>
<feBlend mode="normal" in="SourceGraphic" in2="BackgroundImageFix" result="shape"/>
<feGaussianBlur stdDeviation="16.5" result="effect1_foregroundBlur_50_2327"/>
</filter>
<linearGradient id="paint0_linear_50_2327" x1="44.0439" y1="306.5" x2="15.4534" y2="1097.93" gradientUnits="userSpaceOnUse">
<stop stop-color="#3E3E3E"/>
<stop offset="1" stop-opacity="0"/>
</linearGradient>
<linearGradient id="paint1_linear_50_2327" x1="-335.633" y1="385.538" x2="-30.7783" y2="1051.01" gradientUnits="userSpaceOnUse">
<stop stop-color="white" stop-opacity="0.87"/>
<stop offset="1" stop-color="white" stop-opacity="0"/>
</linearGradient>
<linearGradient id="paint2_linear_50_2327" x1="1318.75" y1="-90.4233" x2="1290.16" y2="701.011" gradientUnits="userSpaceOnUse">
<stop stop-color="#3E3E3E"/>
<stop offset="1" stop-color="#121212" stop-opacity="0.14"/>
</linearGradient>
<linearGradient id="paint3_linear_50_2327" x1="939.078" y1="-11.3848" x2="1232.63" y2="556.089" gradientUnits="userSpaceOnUse">
<stop stop-color="white" stop-opacity="0.87"/>
<stop offset="1" stop-color="white" stop-opacity="0"/>
</linearGradient>
<linearGradient id="paint4_linear_50_2327" x1="131.579" y1="219.961" x2="102.989" y2="1011.4" gradientUnits="userSpaceOnUse">
<stop stop-color="#3E3E3E"/>
<stop offset="1" stop-opacity="0"/>
</linearGradient>
<linearGradient id="paint5_linear_50_2327" x1="-248.098" y1="299" x2="45.4571" y2="866.474" gradientUnits="userSpaceOnUse">
<stop stop-color="white" stop-opacity="0.87"/>
<stop offset="1" stop-color="white" stop-opacity="0"/>
</linearGradient>
<clipPath id="clip0_50_2327">
<rect width="1407" height="878" rx="30" fill="white"/>
</clipPath>
<clipPath id="clip1_50_2327">
<rect width="1464" height="900" fill="white" transform="translate(-32 -1)"/>
</clipPath>
</defs>
</svg>
